<?xml version="1.0" encoding="utf-8"?>
<!-- Generator: Adobe Illustrator 24.1.1, SVG Export Plug-In . SVG Version: 6.00 Build 0)  -->
<svg version="1.1" id="Calque_1" xmlns="http://www.w3.org/2000/svg" xmlns:xlink="http://www.w3.org/1999/xlink" x="0px" y="0px"
	 viewBox="0 0 1920 1080" style="enable-background:new 0 0 1920 1080;" xml:space="preserve">
<style type="text/css">
	.st0{fill:#FFFFFF;}
	.st1{fill:#F1F1F1;stroke:#000000;stroke-miterlimit:10;}
</style>
<path class="st0" d="M342.5,0.5c-8,103.9,27,105.5,47.4,99.2c11-3.4,22.4-4.9,33.8-5c113.5-1,81,47.9,110.8,89.8
	c75,48.5,128.3,36,176,8c49.1-79.8,80.4-78.1,108.1-60.2c15.5,10,34.4,13.3,52.4,9.5c73.2-15.3,93.6-40,77.5-71.3
	c-13-32.3,7-53.2,39-70H342.5z"/>
<path class="st0" d="M1266.5,85.5c-23.6,78.9,39.4,145.2,92,213c62.3,48.3,113.4,34.6,164,18c42.5-38.5,57.2-42.2,103-17.4
	c16.2,8.8,29.9,21.6,40,37.1c26.2,40,66.1,26.5,93.1,11.3c99.7-9.7,96.1,36.3,73,93c-2.5,55.4,3.8,94.6,34,90
	c64,18.6,52,61.6,54,100V0.5h-794C1242,6.6,1272.6,40.2,1266.5,85.5z"/>
<path class="st0" d="M-20.5,161.5c-2.1-58.9,7.8-8.7,43.4,39.5c9.9,13.5,24.9,22.6,41.6,24.4c26,2.8,71.9,60.9,60.1,90.1
	c-21.6,48.6-20,87.2,0,118c11.7,33.6,22.6,68.2,48.6,80.7c10.6,5.1,20.1,12.2,28.6,20.4c25.2,24.3,49.1,23.4,70.8-16.1
	c16.8-43.8,37.4-84.6,88-102c11.3-3.9,22.3-7.1,33-9.5c42.6-9.6,86.4,11.5,104.5,51.3c14.3,31.4,35.1,59.7,70.5,81.3
	c58.1-6.5,105.8-1.7,131,27c27.7,6.9,64.7,1.2,106.9-11.6c12.5-3.8,25.5-5.9,38.6-6.1c48.7-0.9,91.5,3.9,107.5,34.7
	c5.7,13.5,10.8,26.7,14,38.6c7.4,27.7,24.8,51.8,49.4,66.6c23,13.8,48.1,22.6,77.6,21.8c17.6-14.2,36.1-27.1,69-19
	c31,18.5,64.1,23.5,100,9c20.8-20.9,54.4-27.8,89.9-30.3c8-0.6,16,1,23.1,4.6c58.3,28.7,92.1,61.1,98,113.8
	c8.4,42.4-25.4,77.9,82.5,78c4.2,0,8.3-0.4,12.5-1.1c37.3-6,55.5,33.5,77,65c0,0,82.1,31.8,104-17c19.8-44.2,41.8-25.8,50-19
	c21.6,2,44.2,1.6,67-22c24.1-29.1,39.2-28.4,53-23v230c-172.9,3.5-365.7,13.1-475.9-2.9c-32.8-4.8-60.2-26.7-73.5-57
	c-9.2-20.9-27.7-37.1-52.6-53.5c-16.1-10.6-27.9-26.6-32.6-45.3c-10.9-44-47.5-54-144.4-20.3c-15.9,70-144.6,116.7-177,8
	c-17.4-58.4-65.3-95.2-120.9-83.2c-12.6,2.7-23.7,10.2-31.7,20.3c-29.4,37.4-114.4,79-128.4,3.8c-12-64.4-18.7-99.6-72-58
	c-15.3,59.6-55.3,59.6-108,34c-37-17.9-45.4-44.6-94-28c-16.4,34.8-52.4,47.4-100,47c-31.4-1-53.9,6.7-53.3,27.5
	c0.3,9.8-23.7,35.8-30.7,28.5C151.2,890.5,90.4,783.8,73,797.1c-5.2,4-10.7,7.6-16.9,9.7C19,819.9,3.5,771.2-10.5,824.5
	C-4.2,867.8-13.3,363-20.5,161.5z"/>
<path class="st1" d="M101.5,660.5"/>
</svg>
