<?xml version="1.0" encoding="utf-8"?>
<!-- Generator: Adobe Illustrator 24.1.1, SVG Export Plug-In . SVG Version: 6.00 Build 0)  -->
<svg version="1.1" id="Calque_1" xmlns="http://www.w3.org/2000/svg" xmlns:xlink="http://www.w3.org/1999/xlink" x="0px" y="0px"
	 viewBox="0 0 960 560" style="enable-background:new 0 0 960 560;" xml:space="preserve">
<style type="text/css">
	.st0{fill:#FFFFFF;stroke:#000000;stroke-miterlimit:10;}
	.st1{fill:#A6D6ED;stroke:#A6D6ED;stroke-miterlimit:10;}
	.st2{stroke:#000000;stroke-miterlimit:10;}
	.st3{fill:#36A8E8;stroke:#36A8E8;stroke-miterlimit:10;}
	.st4{fill:#0F2442;stroke:#0F2442;stroke-miterlimit:10;}
	.st5{fill:#36A8E8;stroke:#0F2442;stroke-miterlimit:10;}
	.st6{fill:#FFFFFF;stroke:#36A8E8;stroke-miterlimit:10;}
</style>
<image style="display:none;overflow:visible;" width="134" height="125" xlink:href="7AC18BA0.jpg"  transform="matrix(3.5746 0 0 3.624 247 45)">
</image>
<path class="st0" d="M152.5-4.5"/>
<g>
	<path class="st1" d="M634.7,211.3L480.1,60.9c-10.3-10.2-20.6-17.4-37.2-1.1l-161,160c-4.6,7.5-5.7,22.5,4.1,27.8
		c-0.9,0.9,59.6,1,59.6,1.7v123.7c0,0.1,0,0.1,0,0.2c18.1,131.4,235.9,129.4,244,0c0,0,0-0.1,0-0.1l-0.6-126.5l38.6,0.9
		C644.5,247.5,643,219.5,634.7,211.3z"/>
	<path class="st2" d="M425.5,89.3l-132.9,131c-7.5,7.4-2.1,19.9,8.5,19.9h146.6c0.8,0,1.4-0.6,1.4-1.4v-26.9c0-0.8-0.6-1.4-1.4-1.4
		H344.5c-1.2,0-1.8-1.5-0.9-2.4l74.3-70.2c0.9-0.8,2.3-0.2,2.3,1v45.7c0,0.8,0.6,1.4,1.4,1.4h24.9c0.8,0,1.4-0.6,1.4-1.4l0.6-88.7
		C448.2,85.7,432.9,82.1,425.5,89.3z"/>
	<path class="st2" d="M619,210.5H508.5c-0.8,0-1.4-0.6-1.4-1.4v-23c0-0.8,0.6-1.4,1.4-1.4h58.6c8.1,0,14.4-11.8,8.8-17.4l-81.6-78.8
		c-6.8-6.7-16.1-4.3-16.1,5.1v145.1c0,0.8,0.6,1.4,1.4,1.4h139.8c5,0,9.7-2.7,12-7.1c2.6-5.1,2.3-10.3-0.5-15.6
		C628.4,213.2,623.9,210.5,619,210.5z"/>
	<path class="st0" d="M507.1,161.5v-22.5c0-1.2-0.6-2.8,0.3-2l29.1,26.5c0.9,0.9-28.1,0.4-28.1,0.4
		C507.7,163.8,507.1,162.2,507.1,161.5z"/>
	<path class="st3" d="M355.5,372.7V249.3c0-0.8,0.6-1.4,1.4-1.4h90.8c0.8,0,1.4,0.6,1.4,1.4v208c0,0.9-0.8,0.5-1.7,0.3
		c-13-2-33.7-10.7-31.2-12.3v-96.8c0-0.8-0.6-1.4-1.4-1.4h-24.9c-0.8,0-1.4,0.6-1.4,1.4c0,0,1.7,80.8,0.8,80.2
		c-14-10.1-27.8-34.4-33.7-55.6C355.5,373,355.5,372.9,355.5,372.7z"/>
	<path class="st3" d="M479.5,247.9h34.2c0.8,0,1.4,0.6,1.4,1.4v155.2c0,1,1,1.6,1.9,1.3c13.8-5.2,23.8-15.3,27.1-30.1
		c0-0.1,0-0.2,0-0.3V249.3c0-0.8,0.6-1.4,1.4-1.4h32.9c0.8,0,1.4,0.6,1.4,1.4l1.3,130.1c0,0.1,0,0.1,0,0.1
		c-0.1,0.9-1.1,9.1-2.2,11.3c-15.1,31.2-48,59.4-99,67c-0.8,0.1-1.6-0.5-1.6-1.4V249.3C478.1,248.5,478.7,247.9,479.5,247.9z"/>
	<path class="st4" d="M424,450.2c0,0,10,4,10,4l5.8,1.7l-1.3-195.3c0-0.6-0.5-1.1-1.2-1.1h-71.5c-0.6,0-1.2,0.5-1.2,1.1l-1.3,132.3
		c0,0.4,0.1,0.8,0.3,1.2c2.8,5.4,3.6,7.6,7,12.1c1.5,1.9,4.5,7.8,4.5,5.4l0-72.3c0-0.6,0.5-1.1,1.2-1.1h51.7c0.6,0,1.2,0.5,1.2,1.1"
		/>
	<path class="st4" d="M429.5,451.7"/>
	<path class="st5" d="M376.7,268.5h51.3c0.8,0,1.4,0.6,1.4,1.4v57.8c0,0.8-0.6,1.4-1.4,1.4h-51.3c-0.8,0-1.4-0.6-1.4-1.4v-57.8
		C375.3,269.1,375.9,268.5,376.7,268.5z"/>
	<path class="st6" d="M389.8,320.1h23.6c0.8,0,1.4-0.6,1.4-1.4v-39.8c0-0.8-0.6-1.4-1.4-1.4h-23.6c-0.8,0-1.4,0.6-1.4,1.4v39.8
		C388.5,319.5,389.1,320.1,389.8,320.1z"/>
	<path class="st4" d="M490,247.9h9.1c0.8,0,1.4,0.6,1.4,1.4v172.2c0,0.9,0.8,1.5,1.7,1.3c33.4-7.6,41.4-19.6,50.1-37.6
		c0.6-1.3,1-2.8,1-4.3V249.3c0-0.8,0.6-1.4,1.4-1.4H565c0.8,0,1.4,0.6,1.4,1.4l1.3,131.1c0,2-0.4,4-1.3,5.8
		c-15.6,32.6-38.7,50.9-76.2,55c-0.8,0.1-1.5-0.6-1.5-1.4V249.3C488.6,248.5,489.2,247.9,490,247.9z"/>
</g>
</svg>
