<?xml version="1.0" encoding="utf-8"?>
<!-- Generator: Adobe Illustrator 24.1.1, SVG Export Plug-In . SVG Version: 6.00 Build 0)  -->
<svg version="1.1" id="Calque_1" 
style="transform: scale(9)";
xmlns="http://www.w3.org/2000/svg" xmlns:xlink="http://www.w3.org/1999/xlink" x="0px" y="0px"
	 viewBox="220 220 1920 1080" style="enable-background:new 0 0 1920 1080;" xml:space="preserve">
<style type="text/css">
.Calque_1{
        transform: scale(9);
}
	.st0{fill:#0F0404;}
	.st1{fill:#FFFFFF;}
</style>
<image style="display:none;overflow:visible;" width="133" height="124" xlink:href="7AC18BA0.jpg"  transform="matrix(3.2837 0 0 3.2837 660.0213 285.6808)">
</image>
<path class="st0" d="M741.1,492H846c4.3-0.4,7.4-3.5,7-7v-10.7c0-0.1-61.9-0.2-74.3-0.2c-0.8,0-1.2-1-0.6-1.5
	c9.2-8.5,55.9-51.2,55.9-51v35.2c0,0.1,18.8,0.2,18.8,0.2c0.1,0,0.2-0.1,0.2-0.2V392c0-8-6-13-14.9-6c0,0-0.1,0-0.1,0.1
	c0,0-68.4,61.7-98.8,90.9C729.6,486.2,739.8,492.2,741.1,492z"/>
<path d="M985,484.6v-3.2c0-4.1-3.3-7.4-7.4-7.4h-76.2c-4.1,0-7.4-3.3-7.4-7.4v-3.2c0-4.1,3.3-7.4,7.4-7.4h40.2
	c0.9,0,1.8-0.2,2.6-0.5c3.5-1.3,5.3-5.3,4.2-9l-0.8-2.8c-0.4-1.2-1-2.3-1.9-3.1L891,387c-3.8-3.9-7.7-5.1-12-2.9
	c-2.5,1.2-4,3.8-4,6.6v94c0,4.1,3.3,7.4,7.4,7.4h95.2C981.7,492,985,488.7,985,484.6z"/>
<polygon class="st1" points="894,419 894,438 914,438 "/>
<path d="M790.8,503H853v144c-6.7-0.5-13-3.1-18-8l-1-61h-23v48c-13-7-21-19-20-26"/>
<path class="st1" d="M814,558h15.8c1.7,0,3.1-1.4,3.1-3.1v-30c0-1.6-1.3-2.9-2.9-2.9H814c-1.7,0-3,1.4-3,3V555
	C811,556.6,812.4,558,814,558z"/>
<path d="M875,503v144c53-11,65-47,67-62v-82h-21v68c1.3,22.1-9.9,42.8-27,44V503H875z"/>
</svg>
